Simulation
nRows=36
nColumns=15
endheader
time  TH_x TH_y TH_z SC_y  SC_z  SC_x  AC_y  AC_z  AC_x  GH_y  GH_z  GH_yy  EL_x  PS_y
1.5  0.000000  0.000000  0.000000  -29.395482712898772  5.390733677628437  10.034054137551312  75.99524413227343  17.1085137394233  2.1810130409621147  20.895837586389277  55.83279825651914  -41.543502035341774  39.106097505324165  120.000000
1.53  0.000000  0.000000  0.000000  -29.37717375419914  5.361998373363949  10.01359215375193  75.92484571341939  17.123557094347078  2.1167022381785423  20.97679422038213  55.71899573494491  -41.633906787438306  39.16460762822292  120.000000
1.56  0.000000  0.000000  0.000000  -29.352351396661735  5.328570346217943  9.995043449244253  75.84685434507377  17.12239783729747  2.0408393334113515  21.075044411802306  55.60099815149685  -41.733855513909226  39.21855834509546  120.000000
1.5899999999999999  0.000000  0.000000  0.000000  -29.32114626804675  5.289067359103454  9.975292476029322  75.76727340931157  17.104281918822878  1.9557229232470454  21.1827532510483  55.477134284440325  -41.83458449200319  39.26593816418792  120.000000
1.6199999999999999  0.000000  0.000000  0.000000  -29.282946474426073  5.242112805206168  9.950515799984755  75.69061141846095  17.068938881394555  1.862813480945077  21.29311567450292  55.34494512196938  -41.925859572033296  39.304844970821684  120.000000
1.65  0.000000  0.000000  0.000000  -29.23898916070881  5.186612521671469  9.91665651570863  75.6187890600387  17.016812575686057  1.762689102320594  21.402264680233476  55.19825593287538  -41.99818633974741  39.333711207232305  120.000000
1.68  0.000000  0.000000  0.000000  -29.189356784501665  5.121410158448419  9.869773550462352  75.55156475053361  16.948752934462025  1.654786929450799  21.508580706854936  55.03009546655115  -42.04216070441194  39.35113158338469  120.000000
1.71  0.000000  0.000000  0.000000  -29.13507659671384  5.045559667439417  9.806530960751276  75.48665069513997  16.865931700056045  1.5377035300701287  21.6127051919644  54.83066837673625  -42.04985899809126  39.3561812768259  120.000000
1.74  0.000000  0.000000  0.000000  -29.075342959098386  4.95788190043348  9.724241840410059  75.4204181899384  16.76979606992916  1.409286827687309  21.716638979735663  54.5905417781007  -42.014317544201866  39.34832344568776  120.000000
1.77  0.000000  0.000000  0.000000  -29.009568164861445  4.857377168124477  9.621588922940889  75.3482313722921  16.66172268353369  1.2668892664856397  21.822666533909892  54.29866882460939  -41.92966179761087  39.32781032514445  120.000000
1.7999999999999998  0.000000  0.000000  0.000000  -28.9352802427365  4.742812897187912  9.497697340124326  75.26510209286114  16.543078089507866  1.1076440773433338  21.93279188284188  53.94592878947335  -41.79071266409125  39.29555524101632  120.000000
1.8299999999999998  0.000000  0.000000  0.000000  -28.850301278328235  4.613228560078263  9.352858007731864  75.16575276821952  16.41485071426958  0.9287338772306355  22.047677359044236  53.52271158595057  -41.59210090175098  39.25321676681193  120.000000
1.8599999999999999  0.000000  0.000000  0.000000  -28.750996237493183  4.467611372433898  9.186791082989075  75.04531603639067  16.277581052726013  0.7275760490353586  22.166361462046485  53.022964273098694  -41.32786056555094  39.202817241572546  120.000000
1.89  0.000000  0.000000  0.000000  -28.634538206200286  4.30539448923077  8.99970313571176  74.89912517356161  16.13099796491655  0.5022430405068808  22.285777566939316  52.44113772732949  -40.990402443901154  39.14674941366571  120.000000
1.92  0.000000  0.000000  0.000000  -28.49692428511836  4.12603778354968  8.790413530588825  74.7234644517655  15.973853601803297  0.2514318299271771  22.400603962403725  51.77655821890144  -40.570272637995664  39.0873743841782  120.000000
1.95  0.000000  0.000000  0.000000  -28.33537403588305  3.9295963561710883  8.557741409125532  74.51507691401117  15.804134984126827  -0.02487127193642382  22.50356589770604  51.029434911051055  -40.05595282086079  39.027191367725045  120.000000
1.98  0.000000  0.000000  0.000000  -28.14625148718928  3.7162100543381467  8.299058772572085  74.27175171408905  15.618960846731197  -0.32585406266175015  22.58565914032224  50.205029178572886  -39.43433857740337  38.968440969996514  120.000000
2.01  0.000000  0.000000  0.000000  -27.927708705221427  3.486776140945885  8.012242560958075  73.99162592358472  15.415362225551608  -0.6491612633943135  22.637232363551323  49.30865996011127  -38.691618222384385  38.91331829096263  120.000000
2.04  0.000000  0.000000  0.000000  -27.677543415948428  3.242368834172129  7.69472166369417  73.67355691714944  15.190355864970668  -0.9918300214955657  22.64872204933426  48.3495858859268  -37.81484690497709  38.863436959458284  120.000000
2.07  0.000000  0.000000  0.000000  -27.39599331464985  2.9849917651293407  7.345918172105561  73.31655560042226  14.941782177164693  -1.3497321540607319  22.611804136643997  47.33573847702064  -36.79293706411891  38.81996216526854  120.000000
2.1  0.000000  0.000000  0.000000  -27.08335277482183  2.7170109634186583  6.966139148495524  72.91983171629686  14.66846895754765  -1.7188626597878929  22.52015152046034  46.277382494828885  -35.61909177827879  38.78296578475437  120.000000
2.13  0.000000  0.000000  0.000000  -26.742380803019135  2.4417712816879056  6.558794140889061  72.48247311240807  14.370394235641998  -2.0947794536197804  22.369982095855736  45.182087978253406  -34.29062922571099  38.751909390226935  120.000000
2.16  0.000000  0.000000  0.000000  -26.375414322172062  2.1631364855265063  6.128387653145299  72.00373809848443  14.048496143614953  -2.4739453689470348  22.161125135447605  44.058209750722064  -32.811913250032624  38.72611996229098  120.000000
2.19  0.000000  0.000000  0.000000  -25.986306035616366  1.8858329410302137  5.682393088436936  71.48260481620107  13.704065658587117  -2.853127994426923  21.896410393106553  42.910390420058306  -31.192296924210204  38.705331969186076  120.000000
2.2199999999999998  0.000000  0.000000  0.000000  -25.57784377642242  1.6152621677222436  5.2289707081521035  70.91796102505967  13.338841627727566  -3.2306195055959437  21.581807581538897  41.742708218872096  -29.44842876820503  38.69037956015074  120.000000
2.25  0.000000  0.000000  0.000000  -25.15385491745984  1.3576860991865705  4.778431872977321  70.30809546941485  12.954421097154802  -3.60551823519869  21.2243501307899  40.55540203504691  -27.60008665639965  38.68346622035996  120.000000
2.28  0.000000  0.000000  0.000000  -24.71696724912029  1.119991943632315  4.340993681924132  69.65138935192716  12.552554747757515  -3.978286750530672  20.830610309045827  39.34827428562092  -25.669793448900347  38.688160452619776  120.000000
2.31  0.000000  0.000000  0.000000  -24.270272062858993  0.9094832033851117  3.927248544828268  68.94639046774795  12.13447916342622  -4.349632011330883  20.40371331605977  38.118797657572834  -23.676292319694433  38.708467834791165  120.000000
2.34  0.000000  0.000000  0.000000  -23.814872299128897  0.7339093824427972  3.546012194689875  68.1937524171247  11.701119410036448  -4.720967055419234  19.939869923645826  36.86602283566582  -21.630693835496015  38.74740487548653  120.000000
2.37  0.000000  0.000000  0.000000  -23.351081042360338  0.5988647858539548  3.204917257033225  67.39536203433757  11.253346273651259  -5.091032808938048  19.426162757476895  35.58972649067324  -19.531115453178593  38.80523003470653  120.000000
2.4  0.000000  0.000000  0.000000  -22.87544253733781  0.5081974855751534  2.909805396789026  66.55788237303713  10.792253632829151  -5.45579338114297  18.840072483714998  34.295070735722234  -17.360341572872215  38.878896759524935  120.000000
2.4299999999999997  0.000000  0.000000  0.000000  -22.382275221077563  0.4636530789900406  2.663715247738021  65.69243981543741  10.318904593769366  -5.810007458634749  18.149862271303384  32.99003986425178  -15.086428363015468  38.960633514225776  120.000000
2.46  0.000000  0.000000  0.000000  -21.864513768333964  0.4646480605369051  2.4661586761140373  64.81471312234798  9.833811096726524  -6.148665605880457  17.315811244602052  31.68661589865469  -12.664887774098432  39.03854176920957  120.000000
2.4899999999999998  0.000000  0.000000  0.000000  -21.318009538128567  0.5067073445886375  2.314429083807693  63.941425632830466  9.33814647181474  -6.466087423003137  16.29686912392934  30.398350173366826  -10.048109645773286  39.09992575042086  120.000000
2.52  0.000000  0.000000  0.000000  -20.74193261469167  0.5828960781878342  2.203377407147152  63.090417441547466  8.833539355879791  -6.757297499965689  15.060920067825768  29.1415703264457  -7.198780333084927  39.13425007316802  120.000000
2.55  0.000000  0.000000  0.000000  -20.14300178632782  0.6840666485702224  2.124533243034121  62.27736120812858  8.323472591411885  -7.019862509850106  13.590751522578772  27.9315336764555  -4.099431813501171  39.13604225156393  120.000000
